<svg width="256" height="256" viewBox="0 0 256 256" fill="none" xmlns="http://www.w3.org/2000/svg">
  <path
    d="M64 54C64 45.1634 71.1634 38 80 38H176C184.837 38 192 45.1634 192 54V186C192 194.837 184.837 202 176 202H160L146 190L132 202L118 190L104 202L90 190L76 202L64 190V54Z"
    fill="#0C378A"
  />
  <path
    d="M64 54C64 45.1634 71.1634 38 80 38H176C184.837 38 192 45.1634 192 54V186C192 194.837 184.837 202 176 202H160L146 190L132 202L118 190L104 202L90 190L76 202L64 190V54Z"
    stroke="#0F5EE3"
    stroke-width="4"
  />
  <rect x="84" y="118" width="30" height="40" rx="6" fill="#74E6FF"/>
  <rect x="128" y="90" width="30" height="68" rx="6" fill="#32CBF8"/>
  <rect x="172" y="56" width="30" height="102" rx="6" fill="#11A6E8"/>
  <path
    d="M28 156C49 164 69 168 89 168C114 168 139 160 164 141C183 127 203 112 224 102L210 124C191 137 173 149 155 161C131 177 107 185 83 185C62 185 41 179 20 167L28 156Z"
    fill="#18BDF4"
  />
  <path
    d="M122 145C124 145 125.919 145.791 127.333 147.201L139.5 159.333L162.848 135.985C165.191 133.643 168.989 133.643 171.333 135.985C173.676 138.329 173.676 142.127 171.333 144.469L143.744 172.057C141.401 174.401 137.603 174.401 135.26 172.057L118.089 154.886C115.746 152.543 115.746 148.745 118.089 146.402C119.215 145.275 120.743 144.643 122.337 144.643L122 145Z"
    fill="#FFB31A"
  />
  <circle cx="177" cy="164" r="5.5" fill="#FFD25A"/>
</svg>
